<svg width="400" height="16" viewBox="0 0 400 16" fill="none" xmlns="http://www.w3.org/2000/svg">
<line y1="8.60376" x2="400" y2="8.60376" stroke="#F5F5F5" stroke-width="2"/>
<rect width="20" height="14" transform="translate(190 0.60376)" fill="white"/>
<path d="M198.028 10.6668C197.446 10.6668 196.909 10.5318 196.417 10.2618C195.931 9.98576 195.544 9.60476 195.256 9.11876C194.974 8.62676 194.833 8.07476 194.833 7.46276C194.833 6.85076 194.974 6.30176 195.256 5.81576C195.544 5.32976 195.931 4.95176 196.417 4.68176C196.909 4.40576 197.446 4.26776 198.028 4.26776C198.616 4.26776 199.153 4.40576 199.639 4.68176C200.131 4.95176 200.518 5.32976 200.8 5.81576C201.082 6.30176 201.223 6.85076 201.223 7.46276C201.223 8.07476 201.082 8.62676 200.8 9.11876C200.518 9.60476 200.131 9.98576 199.639 10.2618C199.153 10.5318 198.616 10.6668 198.028 10.6668ZM198.028 9.77576C198.442 9.77576 198.811 9.68276 199.135 9.49676C199.459 9.30476 199.711 9.03476 199.891 8.68676C200.077 8.33276 200.17 7.92476 200.17 7.46276C200.17 7.00076 200.077 6.59576 199.891 6.24776C199.711 5.89976 199.459 5.63276 199.135 5.44676C198.811 5.26076 198.442 5.16776 198.028 5.16776C197.614 5.16776 197.245 5.26076 196.921 5.44676C196.597 5.63276 196.342 5.89976 196.156 6.24776C195.976 6.59576 195.886 7.00076 195.886 7.46276C195.886 7.92476 195.976 8.33276 196.156 8.68676C196.342 9.03476 196.597 9.30476 196.921 9.49676C197.245 9.68276 197.614 9.77576 198.028 9.77576ZM203.259 6.36476C203.409 6.11276 203.607 5.91776 203.853 5.77976C204.105 5.63576 204.402 5.56376 204.744 5.56376V6.62576H204.483C204.081 6.62576 203.775 6.72776 203.565 6.93176C203.361 7.13576 203.259 7.48976 203.259 7.99376V10.6038H202.233V5.64476H203.259V6.36476Z" fill="black"/>
</svg>
